<svg width="139" height="38" fill="none" xmlns="http://www.w3.org/2000/svg"><path d="M31.303 11.555V36.66h-8.73v-2.349c-1.078 1.03-2.419 1.841-3.92 2.372-1.503.53-3.127.768-4.753.693C6.283 37.377 0 31.6 0 24.12s6.283-13.258 13.9-13.258c1.626-.073 3.25.164 4.752.694 1.502.531 2.842 1.342 3.922 2.37v-2.348l8.729-.023Zm-8.73 12.553c.076-.798-.05-1.6-.368-2.355a5.608 5.608 0 0 0-1.48-2.019 6.876 6.876 0 0 0-2.33-1.329 7.808 7.808 0 0 0-2.771-.403 7.808 7.808 0 0 0-2.77.404 6.876 6.876 0 0 0-2.331 1.328 5.607 5.607 0 0 0-1.48 2.02 4.851 4.851 0 0 0-.37 2.354 4.87 4.87 0 0 0 .37 2.358 5.627 5.627 0 0 0 1.479 2.023 6.896 6.896 0 0 0 2.33 1.335 7.813 7.813 0 0 0 2.772.414c4.03-.047 6.95-2.396 6.95-6.13Zm26.174-5.32v8.89c0 2.16 2.155 2.348 5.991 2.16v6.823c-11.398 1.033-14.706-1.95-14.706-8.983v-8.89h-4.67v-7.233h4.67V6.787l8.73-2.266v7.046h5.99V18.8l-6.005-.012ZM59.687 0h8.729v36.673h-8.73V0Zm44.98 11.555V36.66h-8.715v-2.349c-1.078 1.027-2.417 1.835-3.917 2.364-1.5.529-3.12.764-4.743.69-7.631 0-13.9-5.778-13.9-13.258 0-7.48 6.283-13.258 13.9-13.258a12.564 12.564 0 0 1 4.745.695c1.5.53 2.838 1.341 3.915 2.37v-2.348l8.715-.012Zm-8.715 12.553c0-1.557-.733-3.05-2.036-4.152-1.303-1.1-3.071-1.72-4.914-1.72-1.844 0-3.611.62-4.915 1.72-1.303 1.101-2.035 2.595-2.035 4.152 0 3.77 2.905 6.13 6.95 6.13s6.95-2.396 6.95-6.13ZM139 21.254v15.43h-8.729V22.347c0-3.077-2.28-4.569-5.074-4.569-3.197 0-5.407 1.61-5.407 5.18v13.715h-8.729V11.555h8.729v2.348c1.585-1.855 4.49-3.053 8.34-3.053 5.852 0 10.87 3.617 10.87 10.404Z" fill="#2026D2"/><path d="M15.651 27.196c.726.012 1.44-.16 2.05-.491.61-.333 1.09-.81 1.377-1.374a2.65 2.65 0 0 0 .237-1.789c-.134-.603-.476-1.158-.985-1.596a3.891 3.891 0 0 0-1.87-.862 4.286 4.286 0 0 0-2.122.166 3.592 3.592 0 0 0-1.652 1.136 2.761 2.761 0 0 0-.62 1.722c-.006.402.082.8.26 1.174.177.373.44.712.773 1a3.7 3.7 0 0 0 1.168.672c.438.157.909.24 1.384.242Zm73.365 0a4.168 4.168 0 0 0 2.053-.486c.612-.33 1.093-.808 1.383-1.37.29-.564.374-1.187.242-1.79-.131-.604-.472-1.16-.98-1.6a3.89 3.89 0 0 0-1.87-.865 4.286 4.286 0 0 0-2.124.163c-.673.232-1.249.628-1.654 1.137a2.761 2.761 0 0 0-.623 1.723c-.005.4.083.799.26 1.171.176.372.438.711.77.998a3.7 3.7 0 0 0 1.163.673 4.19 4.19 0 0 0 1.38.246Z" fill="#62E1FC"/></svg>